<svg data-v-42b19e20="" width="28" height="28" viewBox="0 0 28 28" fill="none" xmlns="http://www.w3.org/2000/svg" data-test-id="store-eta-icon" class="store-eta__icon"><g clip-path="url(#clip0_3_3479)"><path fill-rule="evenodd" clip-rule="evenodd" d="M20.3517 21.2649C22.36 19.5826 23.6248 16.8782 23.6248 14.1829C23.6248 9.1031 19.599 4.92578 14.293 4.92578V13.9934L20.3517 21.2649Z" fill="#292929" fill-opacity="0.15"></path> <path d="M14.0002 3.80078C8.3002 3.80078 3.7002 8.30078 3.7002 14.0008C3.7002 19.7008 8.30019 24.2008 13.9002 24.2008C19.6002 24.2008 24.1002 19.6008 24.1002 14.0008C24.3002 8.30078 19.7002 3.80078 14.0002 3.80078ZM14.0002 22.7008C9.20019 22.7008 5.2002 18.8008 5.2002 13.9008C5.2002 9.30078 8.70019 5.60078 13.2002 5.20078V14.2008L18.7002 21.3008C17.4002 22.2008 15.7002 22.7008 14.0002 22.7008ZM19.9002 20.4008L14.7002 13.7008V5.30078C19.2002 5.70078 22.7002 9.40078 22.7002 14.0008C22.7002 16.5008 21.7002 18.8008 19.9002 20.4008Z" fill="#292929"></path></g> <defs><clipPath id="clip0_3_3479"><rect width="21" height="22" fill="white" transform="translate(3.5 3)"></rect></clipPath></defs></svg>